<svg width="49" height="49" viewBox="0 0 49 49" fill="none" xmlns="http://www.w3.org/2000/svg">
<g id="Group 5">
<path id="Vector" d="M4.4423 0.485759C4.77696 0.480738 5.1167 0.475715 5.46151 0.470691C6.58215 0.455587 7.70278 0.44539 8.82342 0.435193C9.2088 0.430155 9.5891 0.430025 9.98462 0.424982C12.0231 0.409565 14.0564 0.394149 16.0898 0.383639C17.7682 0.378158 19.4466 0.357957 21.12 0.332851C23.1534 0.302715 25.1817 0.287301 27.21 0.2817C27.9807 0.276529 28.7464 0.266454 29.5172 0.25147C35.0088 0.151457 39.8059 0.768051 43.9805 4.5987C46.9175 7.71831 47.1212 10.2059 47.0415 14.3079C46.86 17.5071 45.3597 19.2298 43.0633 21.3993C41.7604 22.1897 40.7819 22.4894 39.2607 22.6567C39.9609 24.0058 40.7621 24.1135 42.1771 24.7116C45.3215 26.1825 46.5745 27.8945 48.041 30.8723C48.9247 34.9053 48.6925 38.0947 46.5742 41.7165C44.6432 44.5728 41.9918 46.3646 38.7622 47.6807C38.0928 47.6809 37.4235 47.6812 36.7339 47.6814C36.6526 47.23 36.5713 46.7786 36.49 46.3125C34.4835 35.7836 30.1246 26.8305 20.9747 20.3618C14.7566 16.3797 8.14857 13.9777 0.719686 13.3473C0.703776 11.3111 0.692939 9.27973 0.687171 7.24348C0.681902 6.6645 0.676632 6.08061 0.671356 5.482C0.671168 4.93246 0.670978 4.37801 0.665714 3.81375C0.665538 3.29855 0.660292 2.78826 0.660112 2.26325C0.770866 -0.082153 2.35315 0.511008 4.4423 0.485759Z" fill="#0050FF"/>
<path id="Vector_2" d="M0.520635 19.8178C7.91878 19.516 14.9827 23.4444 20.3745 27.9664C23.5497 30.8505 26.0558 33.9163 27.6037 37.8705C27.8574 38.3856 28.106 38.9007 28.3648 39.4354C29.6031 42.2121 30.6418 44.8769 30.6428 47.8896C28.9694 47.8902 26.8389 47.8909 25.1149 47.8915C24.9878 47.1016 24.8178 46.5954 24.6907 45.7809C23.2023 38.0731 18.9816 32.5644 12.388 28.0624C9.03046 25.9341 4.36106 25.2318 0.522153 24.2518C0.521654 22.7946 0.521149 21.3192 0.520635 19.8178Z" fill="#0050FF"/>
<path id="Ellipse 2" d="M0.669707 30.5158C3.00034 30.515 5.30831 30.9693 7.46183 31.8528C9.61536 32.7363 11.5723 34.0317 13.2208 35.665C14.8694 37.2983 16.1773 39.2376 17.07 41.372C17.9626 43.5065 18.4224 45.7943 18.4232 48.105L13.5342 48.1067C13.5337 46.4325 13.2005 44.7749 12.5538 43.2284C11.9071 41.682 10.9594 40.2769 9.76499 39.0936C8.57056 37.9102 7.15273 36.9716 5.59244 36.3315C4.03215 35.6914 2.35997 35.3622 0.671365 35.3628L0.669707 30.5158Z" fill="#0050FF"/>
<path id="Ellipse 1" d="M6.78563 48.2499C6.78537 47.4735 6.62707 46.7048 6.31978 45.9876C6.01249 45.2704 5.56222 44.6188 4.99469 44.07C4.42715 43.5213 3.75346 43.086 3.01209 42.7892C2.27071 42.4923 1.47617 42.3397 0.673818 42.3399L0.675843 48.252L6.78563 48.2499Z" fill="#0050FF"/>
</g>
</svg>
